<mxfile host="app.diagrams.net" modified="2023-10-03T10:21:53.083Z" agent="Mozilla/5.0 (Windows NT 10.0; Win64; x64) AppleWebKit/537.36 (KHTML, like Gecko) Chrome/117.0.0.0 Safari/537.36 Edg/117.0.2045.47" etag="S4RJl_fI60Sh63mw-seE" version="22.0.1" type="github">
  <diagram name="Page-1" id="b520641d-4fe3-3701-9064-5fc419738815">
    <mxGraphModel dx="1155" dy="512" grid="1" gridSize="10" guides="1" tooltips="1" connect="1" arrows="1" fold="1" page="1" pageScale="1" pageWidth="1100" pageHeight="850" background="none" math="0" shadow="0">
      <root>
        <object label="" id="0">
          <mxCell />
        </object>
        <mxCell id="1" parent="0" />
        <mxCell id="21ea969265ad0168-6" value="&lt;div style=&quot;color: rgb(204, 204, 204); background-color: rgb(31, 31, 31); font-family: &amp;quot;Cascadia Code&amp;quot;, &amp;quot;Noto Sans Mono&amp;quot;, &amp;quot;Courier New&amp;quot;, &amp;quot;Noto Sans CJK SC&amp;quot;, 微软雅黑, Consolas, &amp;quot;Courier New&amp;quot;, monospace; font-size: 14.5px; line-height: 20px;&quot;&gt;1.pHLA_attns_keyaatype_keyaacontrib&lt;/div&gt;" style="swimlane;html=1;fontStyle=0;childLayout=stackLayout;horizontal=1;startSize=26;fillColor=#F5AB50;horizontalStack=0;resizeParent=1;resizeLast=0;collapsible=1;marginBottom=0;swimlaneFillColor=#ffffff;align=center;rounded=0;shadow=1;comic=0;labelBackgroundColor=none;strokeWidth=1;fontFamily=Verdana;fontSize=12;strokeColor=#909090;fontColor=#1A1A1A;" parent="1" vertex="1">
          <mxGeometry x="40" y="60" width="440" height="144" as="geometry" />
        </mxCell>
        <mxCell id="21ea969265ad0168-8" value="input : 数据，注意力" style="text;html=1;strokeColor=none;fillColor=none;spacingLeft=4;spacingRight=4;whiteSpace=wrap;overflow=hidden;rotatable=0;points=[[0,0.5],[1,0.5]];portConstraint=eastwest;labelBackgroundColor=none;fontColor=#1A1A1A;rounded=0;" parent="21ea969265ad0168-6" vertex="1">
          <mxGeometry y="26" width="440" height="26" as="geometry" />
        </mxCell>
        <mxCell id="21ea969265ad0168-9" value="output: 注意力图信息，pHLA关键氨基酸种类，pHLA关键氨基酸种类的贡献值&lt;br&gt;&amp;nbsp;" style="text;html=1;strokeColor=none;fillColor=none;spacingLeft=4;spacingRight=4;whiteSpace=wrap;overflow=hidden;rotatable=0;points=[[0,0.5],[1,0.5]];portConstraint=eastwest;labelBackgroundColor=none;fontColor=#1A1A1A;rounded=0;" parent="21ea969265ad0168-6" vertex="1">
          <mxGeometry y="52" width="440" height="28" as="geometry" />
        </mxCell>
        <mxCell id="98aYCTHOeASUcdmNUEIj-148" value="功能：该函数的目的是根据提供的数据和注意力数据，生成注意力图，并提取关键的氨基酸类型和其贡献值。它返回注意力图数据以及按贡献值排序的关键氨基酸类型和贡献值。" style="text;html=1;strokeColor=none;fillColor=none;spacingLeft=4;spacingRight=4;whiteSpace=wrap;overflow=hidden;rotatable=0;points=[[0,0.5],[1,0.5]];portConstraint=eastwest;labelBackgroundColor=none;fontColor=#1A1A1A;rounded=0;" vertex="1" parent="21ea969265ad0168-6">
          <mxGeometry y="80" width="440" height="60" as="geometry" />
        </mxCell>
        <mxCell id="98aYCTHOeASUcdmNUEIj-5" style="edgeStyle=elbowEdgeStyle;rounded=0;orthogonalLoop=1;jettySize=auto;html=1;exitX=1;exitY=0.5;exitDx=0;exitDy=0;labelBackgroundColor=none;strokeColor=#182E3E;fontColor=default;" edge="1" parent="21ea969265ad0168-6" source="21ea969265ad0168-8" target="21ea969265ad0168-8">
          <mxGeometry relative="1" as="geometry" />
        </mxCell>
        <mxCell id="98aYCTHOeASUcdmNUEIj-7" value="&lt;div style=&quot;color: rgb(204, 204, 204); background-color: rgb(31, 31, 31); font-family: &amp;quot;Cascadia Code&amp;quot;, &amp;quot;Noto Sans Mono&amp;quot;, &amp;quot;Courier New&amp;quot;, &amp;quot;Noto Sans CJK SC&amp;quot;, 微软雅黑, Consolas, &amp;quot;Courier New&amp;quot;, monospace; font-size: 14.5px; line-height: 20px;&quot;&gt;&lt;div style=&quot;line-height: 20px;&quot;&gt;2.HLA_length_aatype_position_num&lt;/div&gt;&lt;/div&gt;" style="swimlane;html=1;fontStyle=0;childLayout=stackLayout;horizontal=1;startSize=26;fillColor=#F5AB50;horizontalStack=0;resizeParent=1;resizeLast=0;collapsible=1;marginBottom=0;swimlaneFillColor=#ffffff;align=center;rounded=0;shadow=0;comic=0;labelBackgroundColor=none;strokeWidth=1;fontFamily=Verdana;fontSize=12;arcSize=0;strokeColor=#909090;fontColor=#1A1A1A;" vertex="1" parent="1">
          <mxGeometry x="40" y="230" width="440" height="110" as="geometry" />
        </mxCell>
        <mxCell id="98aYCTHOeASUcdmNUEIj-8" value="Row 1" style="text;html=1;strokeColor=none;fillColor=none;spacingLeft=4;spacingRight=4;whiteSpace=wrap;overflow=hidden;rotatable=0;points=[[0,0.5],[1,0.5]];portConstraint=eastwest;labelBackgroundColor=none;fontColor=#1A1A1A;rounded=0;" vertex="1" parent="98aYCTHOeASUcdmNUEIj-7">
          <mxGeometry y="26" width="440" height="26" as="geometry" />
        </mxCell>
        <mxCell id="98aYCTHOeASUcdmNUEIj-9" value="output: 关键氨基酸的位置，" style="text;html=1;strokeColor=none;fillColor=none;spacingLeft=4;spacingRight=4;whiteSpace=wrap;overflow=hidden;rotatable=0;points=[[0,0.5],[1,0.5]];portConstraint=eastwest;labelBackgroundColor=none;fontColor=#1A1A1A;rounded=0;" vertex="1" parent="98aYCTHOeASUcdmNUEIj-7">
          <mxGeometry y="52" width="440" height="26" as="geometry" />
        </mxCell>
        <mxCell id="98aYCTHOeASUcdmNUEIj-10" value="d我的娃" style="text;html=1;strokeColor=none;fillColor=none;spacingLeft=4;spacingRight=4;whiteSpace=wrap;overflow=hidden;rotatable=0;points=[[0,0.5],[1,0.5]];portConstraint=eastwest;labelBackgroundColor=none;fontColor=#1A1A1A;rounded=0;" vertex="1" parent="98aYCTHOeASUcdmNUEIj-7">
          <mxGeometry y="78" width="440" height="26" as="geometry" />
        </mxCell>
        <mxCell id="98aYCTHOeASUcdmNUEIj-11" style="edgeStyle=elbowEdgeStyle;rounded=0;orthogonalLoop=1;jettySize=auto;html=1;exitX=1;exitY=0.5;exitDx=0;exitDy=0;labelBackgroundColor=none;strokeColor=#182E3E;fontColor=default;" edge="1" parent="98aYCTHOeASUcdmNUEIj-7" source="98aYCTHOeASUcdmNUEIj-9" target="98aYCTHOeASUcdmNUEIj-9">
          <mxGeometry relative="1" as="geometry" />
        </mxCell>
        <mxCell id="98aYCTHOeASUcdmNUEIj-12" value="&lt;div style=&quot;color: rgb(204, 204, 204); background-color: rgb(31, 31, 31); font-family: &amp;quot;Cascadia Code&amp;quot;, &amp;quot;Noto Sans Mono&amp;quot;, &amp;quot;Courier New&amp;quot;, &amp;quot;Noto Sans CJK SC&amp;quot;, 微软雅黑, Consolas, &amp;quot;Courier New&amp;quot;, monospace; font-size: 14.5px; line-height: 20px;&quot;&gt;3.HLA_aatype_position_contribution&lt;/div&gt;" style="swimlane;html=1;fontStyle=0;childLayout=stackLayout;horizontal=1;startSize=26;fillColor=#F5AB50;horizontalStack=0;resizeParent=1;resizeLast=0;collapsible=1;marginBottom=0;swimlaneFillColor=#ffffff;align=center;rounded=0;shadow=0;comic=0;labelBackgroundColor=none;strokeWidth=1;fontFamily=Verdana;fontSize=12;strokeColor=#909090;fontColor=#1A1A1A;" vertex="1" parent="1">
          <mxGeometry x="40" y="390" width="440" height="110" as="geometry">
            <mxRectangle x="40" y="390" width="330" height="30" as="alternateBounds" />
          </mxGeometry>
        </mxCell>
        <mxCell id="98aYCTHOeASUcdmNUEIj-13" value="Row 1" style="text;html=1;strokeColor=none;fillColor=none;spacingLeft=4;spacingRight=4;whiteSpace=wrap;overflow=hidden;rotatable=0;points=[[0,0.5],[1,0.5]];portConstraint=eastwest;labelBackgroundColor=none;fontColor=#1A1A1A;rounded=0;" vertex="1" parent="98aYCTHOeASUcdmNUEIj-12">
          <mxGeometry y="26" width="440" height="26" as="geometry" />
        </mxCell>
        <mxCell id="98aYCTHOeASUcdmNUEIj-103" style="edgeStyle=orthogonalEdgeStyle;rounded=0;orthogonalLoop=1;jettySize=auto;html=1;" edge="1" parent="98aYCTHOeASUcdmNUEIj-12" source="98aYCTHOeASUcdmNUEIj-14">
          <mxGeometry relative="1" as="geometry">
            <mxPoint x="-20" y="65" as="targetPoint" />
          </mxGeometry>
        </mxCell>
        <mxCell id="98aYCTHOeASUcdmNUEIj-14" value="fdaf" style="text;html=1;strokeColor=none;fillColor=none;spacingLeft=4;spacingRight=4;whiteSpace=wrap;overflow=hidden;rotatable=0;points=[[0,0.5],[1,0.5]];portConstraint=eastwest;labelBackgroundColor=none;fontColor=#1A1A1A;rounded=0;" vertex="1" parent="98aYCTHOeASUcdmNUEIj-12">
          <mxGeometry y="52" width="440" height="26" as="geometry" />
        </mxCell>
        <mxCell id="98aYCTHOeASUcdmNUEIj-15" value="Row 3" style="text;html=1;strokeColor=none;fillColor=none;spacingLeft=4;spacingRight=4;whiteSpace=wrap;overflow=hidden;rotatable=0;points=[[0,0.5],[1,0.5]];portConstraint=eastwest;labelBackgroundColor=none;fontColor=#1A1A1A;rounded=0;" vertex="1" parent="98aYCTHOeASUcdmNUEIj-12">
          <mxGeometry y="78" width="440" height="26" as="geometry" />
        </mxCell>
        <mxCell id="98aYCTHOeASUcdmNUEIj-16" style="edgeStyle=elbowEdgeStyle;rounded=0;orthogonalLoop=1;jettySize=auto;html=1;exitX=1;exitY=0.5;exitDx=0;exitDy=0;labelBackgroundColor=none;strokeColor=#182E3E;fontColor=default;" edge="1" parent="98aYCTHOeASUcdmNUEIj-12" source="98aYCTHOeASUcdmNUEIj-14" target="98aYCTHOeASUcdmNUEIj-14">
          <mxGeometry relative="1" as="geometry" />
        </mxCell>
        <mxCell id="98aYCTHOeASUcdmNUEIj-17" value="&lt;div style=&quot;color: rgb(204, 204, 204); background-color: rgb(31, 31, 31); font-family: &amp;quot;Cascadia Code&amp;quot;, &amp;quot;Noto Sans Mono&amp;quot;, &amp;quot;Courier New&amp;quot;, &amp;quot;Noto Sans CJK SC&amp;quot;, 微软雅黑, Consolas, &amp;quot;Courier New&amp;quot;, monospace; font-size: 14.5px; line-height: 20px;&quot;&gt;&lt;div style=&quot;line-height: 20px;&quot;&gt;4.HLA_Length_Label_pepaatype_pepposition&lt;/div&gt;&lt;/div&gt;" style="swimlane;html=1;fontStyle=0;childLayout=stackLayout;horizontal=1;startSize=26;fillColor=#F5AB50;horizontalStack=0;resizeParent=1;resizeLast=0;collapsible=1;marginBottom=0;swimlaneFillColor=#ffffff;align=center;rounded=0;shadow=0;comic=0;labelBackgroundColor=none;strokeWidth=1;fontFamily=Verdana;fontSize=12;strokeColor=#909090;fontColor=#1A1A1A;" vertex="1" parent="1">
          <mxGeometry x="40" y="570" width="440" height="110" as="geometry" />
        </mxCell>
        <mxCell id="98aYCTHOeASUcdmNUEIj-19" value="Row 2" style="text;html=1;strokeColor=none;fillColor=none;spacingLeft=4;spacingRight=4;whiteSpace=wrap;overflow=hidden;rotatable=0;points=[[0,0.5],[1,0.5]];portConstraint=eastwest;labelBackgroundColor=none;fontColor=#1A1A1A;rounded=0;" vertex="1" parent="98aYCTHOeASUcdmNUEIj-17">
          <mxGeometry y="26" width="440" height="26" as="geometry" />
        </mxCell>
        <mxCell id="98aYCTHOeASUcdmNUEIj-20" value="Row 3" style="text;html=1;strokeColor=none;fillColor=none;spacingLeft=4;spacingRight=4;whiteSpace=wrap;overflow=hidden;rotatable=0;points=[[0,0.5],[1,0.5]];portConstraint=eastwest;labelBackgroundColor=none;fontColor=#1A1A1A;rounded=0;" vertex="1" parent="98aYCTHOeASUcdmNUEIj-17">
          <mxGeometry y="52" width="440" height="26" as="geometry" />
        </mxCell>
        <mxCell id="98aYCTHOeASUcdmNUEIj-21" style="edgeStyle=elbowEdgeStyle;rounded=0;orthogonalLoop=1;jettySize=auto;html=1;exitX=1;exitY=0.5;exitDx=0;exitDy=0;labelBackgroundColor=none;strokeColor=#182E3E;fontColor=default;" edge="1" parent="98aYCTHOeASUcdmNUEIj-17" source="98aYCTHOeASUcdmNUEIj-19" target="98aYCTHOeASUcdmNUEIj-19">
          <mxGeometry relative="1" as="geometry" />
        </mxCell>
        <mxCell id="98aYCTHOeASUcdmNUEIj-18" value="Row 1" style="text;html=1;strokeColor=none;fillColor=none;spacingLeft=4;spacingRight=4;whiteSpace=wrap;overflow=hidden;rotatable=0;points=[[0,0.5],[1,0.5]];portConstraint=eastwest;labelBackgroundColor=none;fontColor=#1A1A1A;rounded=0;" vertex="1" parent="98aYCTHOeASUcdmNUEIj-17">
          <mxGeometry y="78" width="440" height="26" as="geometry" />
        </mxCell>
        <mxCell id="98aYCTHOeASUcdmNUEIj-22" value="&lt;div style=&quot;color: rgb(204, 204, 204); background-color: rgb(31, 31, 31); font-family: &amp;quot;Cascadia Code&amp;quot;, &amp;quot;Noto Sans Mono&amp;quot;, &amp;quot;Courier New&amp;quot;, &amp;quot;Noto Sans CJK SC&amp;quot;, 微软雅黑, Consolas, &amp;quot;Courier New&amp;quot;, monospace; font-size: 14.5px; line-height: 20px;&quot;&gt;5.HLA_Length_position_keyaatype&lt;/div&gt;" style="swimlane;html=1;fontStyle=0;childLayout=stackLayout;horizontal=1;startSize=26;fillColor=#F5AB50;horizontalStack=0;resizeParent=1;resizeLast=0;collapsible=1;marginBottom=0;swimlaneFillColor=#ffffff;align=center;rounded=0;shadow=0;comic=0;labelBackgroundColor=none;strokeWidth=1;fontFamily=Verdana;fontSize=12;strokeColor=#909090;fontColor=#1A1A1A;" vertex="1" parent="1">
          <mxGeometry x="40" y="740" width="440" height="110" as="geometry" />
        </mxCell>
        <mxCell id="98aYCTHOeASUcdmNUEIj-23" value="Row 1" style="text;html=1;strokeColor=none;fillColor=none;spacingLeft=4;spacingRight=4;whiteSpace=wrap;overflow=hidden;rotatable=0;points=[[0,0.5],[1,0.5]];portConstraint=eastwest;labelBackgroundColor=none;fontColor=#1A1A1A;rounded=0;" vertex="1" parent="98aYCTHOeASUcdmNUEIj-22">
          <mxGeometry y="26" width="440" height="26" as="geometry" />
        </mxCell>
        <mxCell id="98aYCTHOeASUcdmNUEIj-105" style="edgeStyle=orthogonalEdgeStyle;rounded=0;orthogonalLoop=1;jettySize=auto;html=1;" edge="1" parent="98aYCTHOeASUcdmNUEIj-22" source="98aYCTHOeASUcdmNUEIj-24">
          <mxGeometry relative="1" as="geometry">
            <mxPoint x="-20" y="65" as="targetPoint" />
          </mxGeometry>
        </mxCell>
        <mxCell id="98aYCTHOeASUcdmNUEIj-24" value="Row 2" style="text;html=1;strokeColor=none;fillColor=none;spacingLeft=4;spacingRight=4;whiteSpace=wrap;overflow=hidden;rotatable=0;points=[[0,0.5],[1,0.5]];portConstraint=eastwest;labelBackgroundColor=none;fontColor=#1A1A1A;rounded=0;" vertex="1" parent="98aYCTHOeASUcdmNUEIj-22">
          <mxGeometry y="52" width="440" height="26" as="geometry" />
        </mxCell>
        <mxCell id="98aYCTHOeASUcdmNUEIj-25" value="Row 3" style="text;html=1;strokeColor=none;fillColor=none;spacingLeft=4;spacingRight=4;whiteSpace=wrap;overflow=hidden;rotatable=0;points=[[0,0.5],[1,0.5]];portConstraint=eastwest;labelBackgroundColor=none;fontColor=#1A1A1A;rounded=0;" vertex="1" parent="98aYCTHOeASUcdmNUEIj-22">
          <mxGeometry y="78" width="440" height="26" as="geometry" />
        </mxCell>
        <mxCell id="98aYCTHOeASUcdmNUEIj-26" style="edgeStyle=elbowEdgeStyle;rounded=0;orthogonalLoop=1;jettySize=auto;html=1;exitX=1;exitY=0.5;exitDx=0;exitDy=0;labelBackgroundColor=none;strokeColor=#182E3E;fontColor=default;" edge="1" parent="98aYCTHOeASUcdmNUEIj-22" source="98aYCTHOeASUcdmNUEIj-24" target="98aYCTHOeASUcdmNUEIj-24">
          <mxGeometry relative="1" as="geometry" />
        </mxCell>
        <mxCell id="98aYCTHOeASUcdmNUEIj-27" value="&lt;div style=&quot;color: rgb(204, 204, 204); background-color: rgb(31, 31, 31); font-family: &amp;quot;Cascadia Code&amp;quot;, &amp;quot;Noto Sans Mono&amp;quot;, &amp;quot;Courier New&amp;quot;, &amp;quot;Noto Sans CJK SC&amp;quot;, 微软雅黑, Consolas, &amp;quot;Courier New&amp;quot;, monospace; font-size: 14.5px; line-height: 20px;&quot;&gt;&lt;div style=&quot;line-height: 20px;&quot;&gt;6.HLA_Length_aatype_position_contrib_attn_num&lt;/div&gt;&lt;/div&gt;" style="swimlane;html=1;fontStyle=0;childLayout=stackLayout;horizontal=1;startSize=26;fillColor=#F5AB50;horizontalStack=0;resizeParent=1;resizeLast=0;collapsible=1;marginBottom=0;swimlaneFillColor=#ffffff;align=center;rounded=0;shadow=0;comic=0;labelBackgroundColor=none;strokeWidth=1;fontFamily=Verdana;fontSize=12;strokeColor=#909090;fontColor=#1A1A1A;" vertex="1" parent="1">
          <mxGeometry x="40" y="900" width="440" height="110" as="geometry" />
        </mxCell>
        <mxCell id="98aYCTHOeASUcdmNUEIj-28" value="Row 1" style="text;html=1;strokeColor=none;fillColor=none;spacingLeft=4;spacingRight=4;whiteSpace=wrap;overflow=hidden;rotatable=0;points=[[0,0.5],[1,0.5]];portConstraint=eastwest;labelBackgroundColor=none;fontColor=#1A1A1A;rounded=0;" vertex="1" parent="98aYCTHOeASUcdmNUEIj-27">
          <mxGeometry y="26" width="440" height="26" as="geometry" />
        </mxCell>
        <mxCell id="98aYCTHOeASUcdmNUEIj-29" value="Row 2" style="text;html=1;strokeColor=none;fillColor=none;spacingLeft=4;spacingRight=4;whiteSpace=wrap;overflow=hidden;rotatable=0;points=[[0,0.5],[1,0.5]];portConstraint=eastwest;labelBackgroundColor=none;fontColor=#1A1A1A;rounded=0;" vertex="1" parent="98aYCTHOeASUcdmNUEIj-27">
          <mxGeometry y="52" width="440" height="26" as="geometry" />
        </mxCell>
        <mxCell id="98aYCTHOeASUcdmNUEIj-30" value="Row 3" style="text;html=1;strokeColor=none;fillColor=none;spacingLeft=4;spacingRight=4;whiteSpace=wrap;overflow=hidden;rotatable=0;points=[[0,0.5],[1,0.5]];portConstraint=eastwest;labelBackgroundColor=none;fontColor=#1A1A1A;rounded=0;" vertex="1" parent="98aYCTHOeASUcdmNUEIj-27">
          <mxGeometry y="78" width="440" height="26" as="geometry" />
        </mxCell>
        <mxCell id="98aYCTHOeASUcdmNUEIj-31" style="edgeStyle=elbowEdgeStyle;rounded=0;orthogonalLoop=1;jettySize=auto;html=1;exitX=1;exitY=0.5;exitDx=0;exitDy=0;labelBackgroundColor=none;strokeColor=#182E3E;fontColor=default;" edge="1" parent="98aYCTHOeASUcdmNUEIj-27" source="98aYCTHOeASUcdmNUEIj-29" target="98aYCTHOeASUcdmNUEIj-29">
          <mxGeometry relative="1" as="geometry" />
        </mxCell>
        <mxCell id="98aYCTHOeASUcdmNUEIj-32" value="&lt;div style=&quot;color: rgb(204, 204, 204); background-color: rgb(31, 31, 31); font-family: &amp;quot;Cascadia Code&amp;quot;, &amp;quot;Noto Sans Mono&amp;quot;, &amp;quot;Courier New&amp;quot;, &amp;quot;Noto Sans CJK SC&amp;quot;, 微软雅黑, Consolas, &amp;quot;Courier New&amp;quot;, monospace; font-size: 14.5px; line-height: 20px;&quot;&gt;&lt;div style=&quot;line-height: 20px;&quot;&gt;8.oneposition_mut_peptides&lt;/div&gt;&lt;/div&gt;" style="swimlane;html=1;fontStyle=0;childLayout=stackLayout;horizontal=1;startSize=26;fillColor=#F5AB50;horizontalStack=0;resizeParent=1;resizeLast=0;collapsible=1;marginBottom=0;swimlaneFillColor=#ffffff;align=center;rounded=0;shadow=0;comic=0;labelBackgroundColor=none;strokeWidth=1;fontFamily=Verdana;fontSize=12;strokeColor=#909090;fontColor=#1A1A1A;" vertex="1" parent="1">
          <mxGeometry x="600" y="215" width="440" height="110" as="geometry" />
        </mxCell>
        <mxCell id="98aYCTHOeASUcdmNUEIj-33" value="Row 1" style="text;html=1;strokeColor=none;fillColor=none;spacingLeft=4;spacingRight=4;whiteSpace=wrap;overflow=hidden;rotatable=0;points=[[0,0.5],[1,0.5]];portConstraint=eastwest;labelBackgroundColor=none;fontColor=#1A1A1A;rounded=0;" vertex="1" parent="98aYCTHOeASUcdmNUEIj-32">
          <mxGeometry y="26" width="440" height="26" as="geometry" />
        </mxCell>
        <mxCell id="98aYCTHOeASUcdmNUEIj-34" value="Row 2" style="text;html=1;strokeColor=none;fillColor=none;spacingLeft=4;spacingRight=4;whiteSpace=wrap;overflow=hidden;rotatable=0;points=[[0,0.5],[1,0.5]];portConstraint=eastwest;labelBackgroundColor=none;fontColor=#1A1A1A;rounded=0;" vertex="1" parent="98aYCTHOeASUcdmNUEIj-32">
          <mxGeometry y="52" width="440" height="26" as="geometry" />
        </mxCell>
        <mxCell id="98aYCTHOeASUcdmNUEIj-35" value="Row 3" style="text;html=1;strokeColor=none;fillColor=none;spacingLeft=4;spacingRight=4;whiteSpace=wrap;overflow=hidden;rotatable=0;points=[[0,0.5],[1,0.5]];portConstraint=eastwest;labelBackgroundColor=none;fontColor=#1A1A1A;rounded=0;" vertex="1" parent="98aYCTHOeASUcdmNUEIj-32">
          <mxGeometry y="78" width="440" height="26" as="geometry" />
        </mxCell>
        <mxCell id="98aYCTHOeASUcdmNUEIj-36" style="edgeStyle=elbowEdgeStyle;rounded=0;orthogonalLoop=1;jettySize=auto;html=1;exitX=1;exitY=0.5;exitDx=0;exitDy=0;labelBackgroundColor=none;strokeColor=#182E3E;fontColor=default;" edge="1" parent="98aYCTHOeASUcdmNUEIj-32" source="98aYCTHOeASUcdmNUEIj-34" target="98aYCTHOeASUcdmNUEIj-34">
          <mxGeometry relative="1" as="geometry" />
        </mxCell>
        <mxCell id="98aYCTHOeASUcdmNUEIj-38" value="&lt;div style=&quot;color: rgb(204, 204, 204); background-color: rgb(31, 31, 31); font-family: &amp;quot;Cascadia Code&amp;quot;, &amp;quot;Noto Sans Mono&amp;quot;, &amp;quot;Courier New&amp;quot;, &amp;quot;Noto Sans CJK SC&amp;quot;, 微软雅黑, Consolas, &amp;quot;Courier New&amp;quot;, monospace; font-size: 14.5px; line-height: 20px;&quot;&gt;&lt;div style=&quot;line-height: 20px;&quot;&gt;7.HLA_pHLA_contrib_keyaatype_attn_num&lt;/div&gt;&lt;/div&gt;" style="swimlane;html=1;fontStyle=0;childLayout=stackLayout;horizontal=1;startSize=26;fillColor=#F5AB50;horizontalStack=0;resizeParent=1;resizeLast=0;collapsible=1;marginBottom=0;swimlaneFillColor=#ffffff;align=center;rounded=0;shadow=0;comic=0;labelBackgroundColor=none;strokeWidth=1;fontFamily=Verdana;fontSize=12;strokeColor=#909090;fontColor=#1A1A1A;" vertex="1" parent="1">
          <mxGeometry x="40" y="1100" width="440" height="110" as="geometry" />
        </mxCell>
        <mxCell id="98aYCTHOeASUcdmNUEIj-39" value="Row 1" style="text;html=1;strokeColor=none;fillColor=none;spacingLeft=4;spacingRight=4;whiteSpace=wrap;overflow=hidden;rotatable=0;points=[[0,0.5],[1,0.5]];portConstraint=eastwest;labelBackgroundColor=none;fontColor=#1A1A1A;rounded=0;" vertex="1" parent="98aYCTHOeASUcdmNUEIj-38">
          <mxGeometry y="26" width="440" height="26" as="geometry" />
        </mxCell>
        <mxCell id="98aYCTHOeASUcdmNUEIj-40" value="Row 2" style="text;html=1;strokeColor=none;fillColor=none;spacingLeft=4;spacingRight=4;whiteSpace=wrap;overflow=hidden;rotatable=0;points=[[0,0.5],[1,0.5]];portConstraint=eastwest;labelBackgroundColor=none;fontColor=#1A1A1A;rounded=0;" vertex="1" parent="98aYCTHOeASUcdmNUEIj-38">
          <mxGeometry y="52" width="440" height="26" as="geometry" />
        </mxCell>
        <mxCell id="98aYCTHOeASUcdmNUEIj-41" value="Row 3" style="text;html=1;strokeColor=none;fillColor=none;spacingLeft=4;spacingRight=4;whiteSpace=wrap;overflow=hidden;rotatable=0;points=[[0,0.5],[1,0.5]];portConstraint=eastwest;labelBackgroundColor=none;fontColor=#1A1A1A;rounded=0;" vertex="1" parent="98aYCTHOeASUcdmNUEIj-38">
          <mxGeometry y="78" width="440" height="26" as="geometry" />
        </mxCell>
        <mxCell id="98aYCTHOeASUcdmNUEIj-42" style="edgeStyle=elbowEdgeStyle;rounded=0;orthogonalLoop=1;jettySize=auto;html=1;exitX=1;exitY=0.5;exitDx=0;exitDy=0;labelBackgroundColor=none;strokeColor=#182E3E;fontColor=default;" edge="1" parent="98aYCTHOeASUcdmNUEIj-38" source="98aYCTHOeASUcdmNUEIj-40" target="98aYCTHOeASUcdmNUEIj-40">
          <mxGeometry relative="1" as="geometry" />
        </mxCell>
        <mxCell id="98aYCTHOeASUcdmNUEIj-129" style="edgeStyle=orthogonalEdgeStyle;rounded=0;orthogonalLoop=1;jettySize=auto;html=1;elbow=vertical;" edge="1" parent="1" source="98aYCTHOeASUcdmNUEIj-43">
          <mxGeometry relative="1" as="geometry">
            <mxPoint x="540" y="1320" as="targetPoint" />
          </mxGeometry>
        </mxCell>
        <mxCell id="98aYCTHOeASUcdmNUEIj-43" value="&lt;div style=&quot;color: rgb(204, 204, 204); background-color: rgb(31, 31, 31); font-family: &amp;quot;Cascadia Code&amp;quot;, &amp;quot;Noto Sans Mono&amp;quot;, &amp;quot;Courier New&amp;quot;, &amp;quot;Noto Sans CJK SC&amp;quot;, 微软雅黑, Consolas, &amp;quot;Courier New&amp;quot;, monospace; font-size: 14.5px; line-height: 20px;&quot;&gt;&lt;div style=&quot;line-height: 20px;&quot;&gt;9.find_mutate_position_aatype&lt;/div&gt;&lt;/div&gt;" style="swimlane;html=1;fontStyle=0;childLayout=stackLayout;horizontal=1;startSize=26;fillColor=#F5AB50;horizontalStack=0;resizeParent=1;resizeLast=0;collapsible=1;marginBottom=0;swimlaneFillColor=#ffffff;align=center;rounded=0;shadow=0;comic=0;labelBackgroundColor=none;strokeWidth=1;fontFamily=Verdana;fontSize=12;strokeColor=#909090;fontColor=#1A1A1A;" vertex="1" parent="1">
          <mxGeometry x="600" y="390" width="440" height="110" as="geometry" />
        </mxCell>
        <mxCell id="98aYCTHOeASUcdmNUEIj-44" value="Row 1" style="text;html=1;strokeColor=none;fillColor=none;spacingLeft=4;spacingRight=4;whiteSpace=wrap;overflow=hidden;rotatable=0;points=[[0,0.5],[1,0.5]];portConstraint=eastwest;labelBackgroundColor=none;fontColor=#1A1A1A;rounded=0;" vertex="1" parent="98aYCTHOeASUcdmNUEIj-43">
          <mxGeometry y="26" width="440" height="26" as="geometry" />
        </mxCell>
        <mxCell id="98aYCTHOeASUcdmNUEIj-45" value="Row 2" style="text;html=1;strokeColor=none;fillColor=none;spacingLeft=4;spacingRight=4;whiteSpace=wrap;overflow=hidden;rotatable=0;points=[[0,0.5],[1,0.5]];portConstraint=eastwest;labelBackgroundColor=none;fontColor=#1A1A1A;rounded=0;" vertex="1" parent="98aYCTHOeASUcdmNUEIj-43">
          <mxGeometry y="52" width="440" height="26" as="geometry" />
        </mxCell>
        <mxCell id="98aYCTHOeASUcdmNUEIj-46" value="Row 3" style="text;html=1;strokeColor=none;fillColor=none;spacingLeft=4;spacingRight=4;whiteSpace=wrap;overflow=hidden;rotatable=0;points=[[0,0.5],[1,0.5]];portConstraint=eastwest;labelBackgroundColor=none;fontColor=#1A1A1A;rounded=0;" vertex="1" parent="98aYCTHOeASUcdmNUEIj-43">
          <mxGeometry y="78" width="440" height="26" as="geometry" />
        </mxCell>
        <mxCell id="98aYCTHOeASUcdmNUEIj-47" style="edgeStyle=elbowEdgeStyle;rounded=0;orthogonalLoop=1;jettySize=auto;html=1;exitX=1;exitY=0.5;exitDx=0;exitDy=0;labelBackgroundColor=none;strokeColor=#182E3E;fontColor=default;" edge="1" parent="98aYCTHOeASUcdmNUEIj-43" source="98aYCTHOeASUcdmNUEIj-45" target="98aYCTHOeASUcdmNUEIj-45">
          <mxGeometry relative="1" as="geometry" />
        </mxCell>
        <mxCell id="98aYCTHOeASUcdmNUEIj-58" value="&lt;div style=&quot;color: rgb(204, 204, 204); background-color: rgb(31, 31, 31); font-family: &amp;quot;Cascadia Code&amp;quot;, &amp;quot;Noto Sans Mono&amp;quot;, &amp;quot;Courier New&amp;quot;, &amp;quot;Noto Sans CJK SC&amp;quot;, 微软雅黑, Consolas, &amp;quot;Courier New&amp;quot;, monospace; font-size: 14.5px; line-height: 20px;&quot;&gt;&lt;div style=&quot;line-height: 20px;&quot;&gt;&lt;div style=&quot;line-height: 20px;&quot;&gt;10.mutation_positive_peptide_1&lt;/div&gt;&lt;/div&gt;&lt;/div&gt;" style="swimlane;html=1;fontStyle=0;childLayout=stackLayout;horizontal=1;startSize=26;fillColor=#F5AB50;horizontalStack=0;resizeParent=1;resizeLast=0;collapsible=1;marginBottom=0;swimlaneFillColor=#ffffff;align=center;rounded=0;shadow=0;comic=0;labelBackgroundColor=none;strokeWidth=1;fontFamily=Verdana;fontSize=12;strokeColor=#909090;fontColor=#1A1A1A;" vertex="1" parent="1">
          <mxGeometry x="600" y="570" width="440" height="110" as="geometry" />
        </mxCell>
        <mxCell id="98aYCTHOeASUcdmNUEIj-59" value="Row 1" style="text;html=1;strokeColor=none;fillColor=none;spacingLeft=4;spacingRight=4;whiteSpace=wrap;overflow=hidden;rotatable=0;points=[[0,0.5],[1,0.5]];portConstraint=eastwest;labelBackgroundColor=none;fontColor=#1A1A1A;rounded=0;" vertex="1" parent="98aYCTHOeASUcdmNUEIj-58">
          <mxGeometry y="26" width="440" height="26" as="geometry" />
        </mxCell>
        <mxCell id="98aYCTHOeASUcdmNUEIj-60" value="Row 2" style="text;html=1;strokeColor=none;fillColor=none;spacingLeft=4;spacingRight=4;whiteSpace=wrap;overflow=hidden;rotatable=0;points=[[0,0.5],[1,0.5]];portConstraint=eastwest;labelBackgroundColor=none;fontColor=#1A1A1A;rounded=0;" vertex="1" parent="98aYCTHOeASUcdmNUEIj-58">
          <mxGeometry y="52" width="440" height="26" as="geometry" />
        </mxCell>
        <mxCell id="98aYCTHOeASUcdmNUEIj-61" value="Row 3" style="text;html=1;strokeColor=none;fillColor=none;spacingLeft=4;spacingRight=4;whiteSpace=wrap;overflow=hidden;rotatable=0;points=[[0,0.5],[1,0.5]];portConstraint=eastwest;labelBackgroundColor=none;fontColor=#1A1A1A;rounded=0;" vertex="1" parent="98aYCTHOeASUcdmNUEIj-58">
          <mxGeometry y="78" width="440" height="26" as="geometry" />
        </mxCell>
        <mxCell id="98aYCTHOeASUcdmNUEIj-62" style="edgeStyle=elbowEdgeStyle;rounded=0;orthogonalLoop=1;jettySize=auto;html=1;exitX=1;exitY=0.5;exitDx=0;exitDy=0;labelBackgroundColor=none;strokeColor=#182E3E;fontColor=default;" edge="1" parent="98aYCTHOeASUcdmNUEIj-58" source="98aYCTHOeASUcdmNUEIj-60" target="98aYCTHOeASUcdmNUEIj-60">
          <mxGeometry relative="1" as="geometry" />
        </mxCell>
        <mxCell id="98aYCTHOeASUcdmNUEIj-63" value="&lt;div style=&quot;color: rgb(204, 204, 204); background-color: rgb(31, 31, 31); font-family: &amp;quot;Cascadia Code&amp;quot;, &amp;quot;Noto Sans Mono&amp;quot;, &amp;quot;Courier New&amp;quot;, &amp;quot;Noto Sans CJK SC&amp;quot;, 微软雅黑, Consolas, &amp;quot;Courier New&amp;quot;, monospace; font-size: 14.5px; line-height: 20px;&quot;&gt;&lt;div style=&quot;line-height: 20px;&quot;&gt;&lt;div style=&quot;line-height: 20px;&quot;&gt;mutation_positive_peptide_2&lt;/div&gt;&lt;/div&gt;&lt;/div&gt;" style="swimlane;html=1;fontStyle=0;childLayout=stackLayout;horizontal=1;startSize=26;fillColor=#F5AB50;horizontalStack=0;resizeParent=1;resizeLast=0;collapsible=1;marginBottom=0;swimlaneFillColor=#ffffff;align=center;rounded=0;shadow=0;comic=0;labelBackgroundColor=none;strokeWidth=1;fontFamily=Verdana;fontSize=12;strokeColor=#909090;fontColor=#1A1A1A;" vertex="1" parent="1">
          <mxGeometry x="600" y="720" width="440" height="110" as="geometry" />
        </mxCell>
        <mxCell id="98aYCTHOeASUcdmNUEIj-64" value="Row 1" style="text;html=1;strokeColor=none;fillColor=none;spacingLeft=4;spacingRight=4;whiteSpace=wrap;overflow=hidden;rotatable=0;points=[[0,0.5],[1,0.5]];portConstraint=eastwest;labelBackgroundColor=none;fontColor=#1A1A1A;rounded=0;" vertex="1" parent="98aYCTHOeASUcdmNUEIj-63">
          <mxGeometry y="26" width="440" height="26" as="geometry" />
        </mxCell>
        <mxCell id="98aYCTHOeASUcdmNUEIj-101" style="edgeStyle=orthogonalEdgeStyle;rounded=0;orthogonalLoop=1;jettySize=auto;html=1;" edge="1" parent="98aYCTHOeASUcdmNUEIj-63" source="98aYCTHOeASUcdmNUEIj-65">
          <mxGeometry relative="1" as="geometry">
            <mxPoint x="-20" y="65" as="targetPoint" />
          </mxGeometry>
        </mxCell>
        <mxCell id="98aYCTHOeASUcdmNUEIj-65" value="Row 2" style="text;html=1;strokeColor=none;fillColor=none;spacingLeft=4;spacingRight=4;whiteSpace=wrap;overflow=hidden;rotatable=0;points=[[0,0.5],[1,0.5]];portConstraint=eastwest;labelBackgroundColor=none;fontColor=#1A1A1A;rounded=0;" vertex="1" parent="98aYCTHOeASUcdmNUEIj-63">
          <mxGeometry y="52" width="440" height="26" as="geometry" />
        </mxCell>
        <mxCell id="98aYCTHOeASUcdmNUEIj-66" value="Row 3" style="text;html=1;strokeColor=none;fillColor=none;spacingLeft=4;spacingRight=4;whiteSpace=wrap;overflow=hidden;rotatable=0;points=[[0,0.5],[1,0.5]];portConstraint=eastwest;labelBackgroundColor=none;fontColor=#1A1A1A;rounded=0;" vertex="1" parent="98aYCTHOeASUcdmNUEIj-63">
          <mxGeometry y="78" width="440" height="26" as="geometry" />
        </mxCell>
        <mxCell id="98aYCTHOeASUcdmNUEIj-67" style="edgeStyle=elbowEdgeStyle;rounded=0;orthogonalLoop=1;jettySize=auto;html=1;exitX=1;exitY=0.5;exitDx=0;exitDy=0;labelBackgroundColor=none;strokeColor=#182E3E;fontColor=default;" edge="1" parent="98aYCTHOeASUcdmNUEIj-63" source="98aYCTHOeASUcdmNUEIj-65" target="98aYCTHOeASUcdmNUEIj-65">
          <mxGeometry relative="1" as="geometry" />
        </mxCell>
        <mxCell id="98aYCTHOeASUcdmNUEIj-68" value="&lt;div style=&quot;color: rgb(204, 204, 204); background-color: rgb(31, 31, 31); font-family: &amp;quot;Cascadia Code&amp;quot;, &amp;quot;Noto Sans Mono&amp;quot;, &amp;quot;Courier New&amp;quot;, &amp;quot;Noto Sans CJK SC&amp;quot;, 微软雅黑, Consolas, &amp;quot;Courier New&amp;quot;, monospace; font-size: 14.5px; line-height: 20px;&quot;&gt;&lt;div style=&quot;line-height: 20px;&quot;&gt;&lt;div style=&quot;line-height: 20px;&quot;&gt;mutation_positive_peptide_3&lt;/div&gt;&lt;/div&gt;&lt;/div&gt;" style="swimlane;html=1;fontStyle=0;childLayout=stackLayout;horizontal=1;startSize=26;fillColor=#F5AB50;horizontalStack=0;resizeParent=1;resizeLast=0;collapsible=1;marginBottom=0;swimlaneFillColor=#ffffff;align=center;rounded=0;shadow=0;comic=0;labelBackgroundColor=none;strokeWidth=1;fontFamily=Verdana;fontSize=12;strokeColor=#909090;fontColor=#1A1A1A;" vertex="1" parent="1">
          <mxGeometry x="600" y="890" width="440" height="110" as="geometry" />
        </mxCell>
        <mxCell id="98aYCTHOeASUcdmNUEIj-69" value="Row 1" style="text;html=1;strokeColor=none;fillColor=none;spacingLeft=4;spacingRight=4;whiteSpace=wrap;overflow=hidden;rotatable=0;points=[[0,0.5],[1,0.5]];portConstraint=eastwest;labelBackgroundColor=none;fontColor=#1A1A1A;rounded=0;" vertex="1" parent="98aYCTHOeASUcdmNUEIj-68">
          <mxGeometry y="26" width="440" height="26" as="geometry" />
        </mxCell>
        <mxCell id="98aYCTHOeASUcdmNUEIj-100" style="edgeStyle=orthogonalEdgeStyle;rounded=0;orthogonalLoop=1;jettySize=auto;html=1;" edge="1" parent="98aYCTHOeASUcdmNUEIj-68" source="98aYCTHOeASUcdmNUEIj-70">
          <mxGeometry relative="1" as="geometry">
            <mxPoint x="-20" y="65" as="targetPoint" />
          </mxGeometry>
        </mxCell>
        <mxCell id="98aYCTHOeASUcdmNUEIj-70" value="Row 2" style="text;html=1;strokeColor=none;fillColor=none;spacingLeft=4;spacingRight=4;whiteSpace=wrap;overflow=hidden;rotatable=0;points=[[0,0.5],[1,0.5]];portConstraint=eastwest;labelBackgroundColor=none;fontColor=#1A1A1A;rounded=0;" vertex="1" parent="98aYCTHOeASUcdmNUEIj-68">
          <mxGeometry y="52" width="440" height="26" as="geometry" />
        </mxCell>
        <mxCell id="98aYCTHOeASUcdmNUEIj-71" value="Row 3" style="text;html=1;strokeColor=none;fillColor=none;spacingLeft=4;spacingRight=4;whiteSpace=wrap;overflow=hidden;rotatable=0;points=[[0,0.5],[1,0.5]];portConstraint=eastwest;labelBackgroundColor=none;fontColor=#1A1A1A;rounded=0;" vertex="1" parent="98aYCTHOeASUcdmNUEIj-68">
          <mxGeometry y="78" width="440" height="26" as="geometry" />
        </mxCell>
        <mxCell id="98aYCTHOeASUcdmNUEIj-72" style="edgeStyle=elbowEdgeStyle;rounded=0;orthogonalLoop=1;jettySize=auto;html=1;exitX=1;exitY=0.5;exitDx=0;exitDy=0;labelBackgroundColor=none;strokeColor=#182E3E;fontColor=default;" edge="1" parent="98aYCTHOeASUcdmNUEIj-68" source="98aYCTHOeASUcdmNUEIj-70" target="98aYCTHOeASUcdmNUEIj-70">
          <mxGeometry relative="1" as="geometry" />
        </mxCell>
        <mxCell id="98aYCTHOeASUcdmNUEIj-73" value="&lt;div style=&quot;color: rgb(204, 204, 204); background-color: rgb(31, 31, 31); font-family: &amp;quot;Cascadia Code&amp;quot;, &amp;quot;Noto Sans Mono&amp;quot;, &amp;quot;Courier New&amp;quot;, &amp;quot;Noto Sans CJK SC&amp;quot;, 微软雅黑, Consolas, &amp;quot;Courier New&amp;quot;, monospace; font-size: 14.5px; line-height: 20px;&quot;&gt;&lt;div style=&quot;line-height: 20px;&quot;&gt;&lt;div style=&quot;line-height: 20px;&quot;&gt;mutation_positive_peptide_4&lt;/div&gt;&lt;/div&gt;&lt;/div&gt;" style="swimlane;html=1;fontStyle=0;childLayout=stackLayout;horizontal=1;startSize=26;fillColor=#F5AB50;horizontalStack=0;resizeParent=1;resizeLast=0;collapsible=1;marginBottom=0;swimlaneFillColor=#ffffff;align=center;rounded=0;shadow=0;comic=0;labelBackgroundColor=none;strokeWidth=1;fontFamily=Verdana;fontSize=12;strokeColor=#909090;fontColor=#1A1A1A;" vertex="1" parent="1">
          <mxGeometry x="600" y="1050" width="440" height="110" as="geometry" />
        </mxCell>
        <mxCell id="98aYCTHOeASUcdmNUEIj-74" value="Row 1" style="text;html=1;strokeColor=none;fillColor=none;spacingLeft=4;spacingRight=4;whiteSpace=wrap;overflow=hidden;rotatable=0;points=[[0,0.5],[1,0.5]];portConstraint=eastwest;labelBackgroundColor=none;fontColor=#1A1A1A;rounded=0;" vertex="1" parent="98aYCTHOeASUcdmNUEIj-73">
          <mxGeometry y="26" width="440" height="26" as="geometry" />
        </mxCell>
        <mxCell id="98aYCTHOeASUcdmNUEIj-102" style="edgeStyle=orthogonalEdgeStyle;rounded=0;orthogonalLoop=1;jettySize=auto;html=1;" edge="1" parent="98aYCTHOeASUcdmNUEIj-73" source="98aYCTHOeASUcdmNUEIj-75">
          <mxGeometry relative="1" as="geometry">
            <mxPoint x="-20" y="65" as="targetPoint" />
          </mxGeometry>
        </mxCell>
        <mxCell id="98aYCTHOeASUcdmNUEIj-75" value="Row 2" style="text;html=1;strokeColor=none;fillColor=none;spacingLeft=4;spacingRight=4;whiteSpace=wrap;overflow=hidden;rotatable=0;points=[[0,0.5],[1,0.5]];portConstraint=eastwest;labelBackgroundColor=none;fontColor=#1A1A1A;rounded=0;" vertex="1" parent="98aYCTHOeASUcdmNUEIj-73">
          <mxGeometry y="52" width="440" height="26" as="geometry" />
        </mxCell>
        <mxCell id="98aYCTHOeASUcdmNUEIj-76" value="Row 3" style="text;html=1;strokeColor=none;fillColor=none;spacingLeft=4;spacingRight=4;whiteSpace=wrap;overflow=hidden;rotatable=0;points=[[0,0.5],[1,0.5]];portConstraint=eastwest;labelBackgroundColor=none;fontColor=#1A1A1A;rounded=0;" vertex="1" parent="98aYCTHOeASUcdmNUEIj-73">
          <mxGeometry y="78" width="440" height="26" as="geometry" />
        </mxCell>
        <mxCell id="98aYCTHOeASUcdmNUEIj-77" style="edgeStyle=elbowEdgeStyle;rounded=0;orthogonalLoop=1;jettySize=auto;html=1;exitX=1;exitY=0.5;exitDx=0;exitDy=0;labelBackgroundColor=none;strokeColor=#182E3E;fontColor=default;" edge="1" parent="98aYCTHOeASUcdmNUEIj-73" source="98aYCTHOeASUcdmNUEIj-75" target="98aYCTHOeASUcdmNUEIj-75">
          <mxGeometry relative="1" as="geometry" />
        </mxCell>
        <mxCell id="98aYCTHOeASUcdmNUEIj-78" value="&lt;div style=&quot;color: rgb(204, 204, 204); background-color: rgb(31, 31, 31); font-family: &amp;quot;Cascadia Code&amp;quot;, &amp;quot;Noto Sans Mono&amp;quot;, &amp;quot;Courier New&amp;quot;, &amp;quot;Noto Sans CJK SC&amp;quot;, 微软雅黑, Consolas, &amp;quot;Courier New&amp;quot;, monospace; font-size: 14.5px; line-height: 20px;&quot;&gt;&lt;div style=&quot;line-height: 20px;&quot;&gt;&lt;div style=&quot;line-height: 20px;&quot;&gt;&lt;div style=&quot;line-height: 20px;&quot;&gt;11.pHLA_mutation_peptides&lt;/div&gt;&lt;/div&gt;&lt;/div&gt;&lt;/div&gt;" style="swimlane;html=1;fontStyle=0;childLayout=stackLayout;horizontal=1;startSize=26;fillColor=#F5AB50;horizontalStack=0;resizeParent=1;resizeLast=0;collapsible=1;marginBottom=0;swimlaneFillColor=#ffffff;align=center;rounded=0;shadow=0;comic=0;labelBackgroundColor=none;strokeWidth=1;fontFamily=Verdana;fontSize=12;strokeColor=#909090;fontColor=#1A1A1A;" vertex="1" parent="1">
          <mxGeometry x="600" y="1220" width="440" height="110" as="geometry" />
        </mxCell>
        <mxCell id="98aYCTHOeASUcdmNUEIj-79" value="Row 1" style="text;html=1;strokeColor=none;fillColor=none;spacingLeft=4;spacingRight=4;whiteSpace=wrap;overflow=hidden;rotatable=0;points=[[0,0.5],[1,0.5]];portConstraint=eastwest;labelBackgroundColor=none;fontColor=#1A1A1A;rounded=0;" vertex="1" parent="98aYCTHOeASUcdmNUEIj-78">
          <mxGeometry y="26" width="440" height="26" as="geometry" />
        </mxCell>
        <mxCell id="98aYCTHOeASUcdmNUEIj-80" value="Row 2" style="text;html=1;strokeColor=none;fillColor=none;spacingLeft=4;spacingRight=4;whiteSpace=wrap;overflow=hidden;rotatable=0;points=[[0,0.5],[1,0.5]];portConstraint=eastwest;labelBackgroundColor=none;fontColor=#1A1A1A;rounded=0;" vertex="1" parent="98aYCTHOeASUcdmNUEIj-78">
          <mxGeometry y="52" width="440" height="26" as="geometry" />
        </mxCell>
        <mxCell id="98aYCTHOeASUcdmNUEIj-81" value="Row 3" style="text;html=1;strokeColor=none;fillColor=none;spacingLeft=4;spacingRight=4;whiteSpace=wrap;overflow=hidden;rotatable=0;points=[[0,0.5],[1,0.5]];portConstraint=eastwest;labelBackgroundColor=none;fontColor=#1A1A1A;rounded=0;" vertex="1" parent="98aYCTHOeASUcdmNUEIj-78">
          <mxGeometry y="78" width="440" height="26" as="geometry" />
        </mxCell>
        <mxCell id="98aYCTHOeASUcdmNUEIj-82" style="edgeStyle=elbowEdgeStyle;rounded=0;orthogonalLoop=1;jettySize=auto;html=1;exitX=1;exitY=0.5;exitDx=0;exitDy=0;labelBackgroundColor=none;strokeColor=#182E3E;fontColor=default;" edge="1" parent="98aYCTHOeASUcdmNUEIj-78" source="98aYCTHOeASUcdmNUEIj-80" target="98aYCTHOeASUcdmNUEIj-80">
          <mxGeometry relative="1" as="geometry" />
        </mxCell>
        <mxCell id="98aYCTHOeASUcdmNUEIj-95" style="edgeStyle=orthogonalEdgeStyle;rounded=0;orthogonalLoop=1;jettySize=auto;html=1;entryX=-0.002;entryY=0.046;entryDx=0;entryDy=0;entryPerimeter=0;labelBackgroundColor=none;strokeColor=#182E3E;fontColor=default;" edge="1" parent="1" source="98aYCTHOeASUcdmNUEIj-9" target="98aYCTHOeASUcdmNUEIj-18">
          <mxGeometry relative="1" as="geometry" />
        </mxCell>
        <mxCell id="98aYCTHOeASUcdmNUEIj-98" style="edgeStyle=orthogonalEdgeStyle;rounded=0;orthogonalLoop=1;jettySize=auto;html=1;entryX=0;entryY=0.923;entryDx=0;entryDy=0;entryPerimeter=0;" edge="1" parent="1" source="98aYCTHOeASUcdmNUEIj-60" target="98aYCTHOeASUcdmNUEIj-80">
          <mxGeometry relative="1" as="geometry" />
        </mxCell>
        <mxCell id="98aYCTHOeASUcdmNUEIj-104" style="edgeStyle=orthogonalEdgeStyle;rounded=0;orthogonalLoop=1;jettySize=auto;html=1;entryX=0;entryY=0.5;entryDx=0;entryDy=0;" edge="1" parent="1" source="98aYCTHOeASUcdmNUEIj-18" target="98aYCTHOeASUcdmNUEIj-29">
          <mxGeometry relative="1" as="geometry" />
        </mxCell>
        <mxCell id="98aYCTHOeASUcdmNUEIj-107" style="edgeStyle=orthogonalEdgeStyle;rounded=0;orthogonalLoop=1;jettySize=auto;html=1;entryX=0;entryY=0.5;entryDx=0;entryDy=0;" edge="1" parent="1" source="98aYCTHOeASUcdmNUEIj-30" target="98aYCTHOeASUcdmNUEIj-39">
          <mxGeometry relative="1" as="geometry" />
        </mxCell>
        <mxCell id="98aYCTHOeASUcdmNUEIj-111" style="edgeStyle=entityRelationEdgeStyle;rounded=0;orthogonalLoop=1;jettySize=auto;html=1;entryX=1;entryY=0.5;entryDx=0;entryDy=0;elbow=vertical;" edge="1" parent="1" source="21ea969265ad0168-8" target="98aYCTHOeASUcdmNUEIj-40">
          <mxGeometry relative="1" as="geometry" />
        </mxCell>
        <mxCell id="98aYCTHOeASUcdmNUEIj-113" style="edgeStyle=entityRelationEdgeStyle;rounded=0;orthogonalLoop=1;jettySize=auto;html=1;entryX=1;entryY=0.5;entryDx=0;entryDy=0;elbow=vertical;" edge="1" parent="1" source="98aYCTHOeASUcdmNUEIj-34" target="98aYCTHOeASUcdmNUEIj-60">
          <mxGeometry relative="1" as="geometry" />
        </mxCell>
        <mxCell id="98aYCTHOeASUcdmNUEIj-114" style="edgeStyle=entityRelationEdgeStyle;rounded=0;orthogonalLoop=1;jettySize=auto;html=1;exitX=1;exitY=0.5;exitDx=0;exitDy=0;entryX=1;entryY=0.5;entryDx=0;entryDy=0;elbow=vertical;" edge="1" parent="1" source="98aYCTHOeASUcdmNUEIj-34" target="98aYCTHOeASUcdmNUEIj-65">
          <mxGeometry relative="1" as="geometry">
            <Array as="points">
              <mxPoint x="1040" y="940" />
            </Array>
          </mxGeometry>
        </mxCell>
        <mxCell id="98aYCTHOeASUcdmNUEIj-115" style="edgeStyle=entityRelationEdgeStyle;rounded=0;orthogonalLoop=1;jettySize=auto;html=1;entryX=1;entryY=0.5;entryDx=0;entryDy=0;elbow=vertical;" edge="1" parent="1" source="98aYCTHOeASUcdmNUEIj-34" target="98aYCTHOeASUcdmNUEIj-70">
          <mxGeometry relative="1" as="geometry">
            <Array as="points">
              <mxPoint x="1090" y="730" />
            </Array>
          </mxGeometry>
        </mxCell>
        <mxCell id="98aYCTHOeASUcdmNUEIj-116" style="edgeStyle=entityRelationEdgeStyle;rounded=0;orthogonalLoop=1;jettySize=auto;html=1;elbow=vertical;" edge="1" parent="1" source="98aYCTHOeASUcdmNUEIj-34" target="98aYCTHOeASUcdmNUEIj-75">
          <mxGeometry relative="1" as="geometry" />
        </mxCell>
        <mxCell id="98aYCTHOeASUcdmNUEIj-128" style="edgeStyle=orthogonalEdgeStyle;rounded=0;orthogonalLoop=1;jettySize=auto;html=1;entryX=-0.014;entryY=0.823;entryDx=0;entryDy=0;entryPerimeter=0;elbow=vertical;" edge="1" parent="1" source="98aYCTHOeASUcdmNUEIj-38" target="98aYCTHOeASUcdmNUEIj-81">
          <mxGeometry relative="1" as="geometry" />
        </mxCell>
      </root>
    </mxGraphModel>
  </diagram>
</mxfile>
